<svg version="1.1" width="190" height="247" xmlns="http://www.w3.org/2000/svg">
<rect x="0" y="0" width="190" height="247" fill="#504f50" />
<g transform="scale(1, 1)">
<path d="M 171 64 L 152 203 L 45 157 Z" fill="#dfe0dc" fill-opacity="0.501961" />
<path d="M 205 191 L -16 236 L 183 262 Z" fill="#000002" fill-opacity="0.501961" />
<path d="M 107 -2 L 0 -16 L -1 257 Z" fill="#0e1515" fill-opacity="0.501961" />
<path d="M 105 132 L 109 62 L 26 204 Z" fill="#ccc2bd" fill-opacity="0.501961" />
<path d="M 137 204 L 149 53 L 85 203 Z" fill="#b3b4b3" fill-opacity="0.501961" />
<path d="M 83 144 L 99 187 L 62 192 Z" fill="#00050d" fill-opacity="0.501961" />
<path d="M 165 87 L 39 -16 L 204 -2 Z" fill="#30302e" fill-opacity="0.501961" />
<path d="M 89 111 L 89 41 L 113 44 Z" fill="#ce8d7f" fill-opacity="0.501961" />
<path d="M 43 262 L 79 208 L -16 232 Z" fill="#01050b" fill-opacity="0.501961" />
<path d="M 60 212 L 15 212 L 48 154 Z" fill="#ae7971" fill-opacity="0.501961" />
</g>
</svg>
