<svg version="1.1" width="190" height="247" xmlns="http://www.w3.org/2000/svg">
<rect x="0" y="0" width="190" height="247" fill="#504f50" />
<g transform="scale(1, 1)">
<path d="M 177 66 L 152 205 L 51 149 Z" fill="#e0e2de" fill-opacity="0.501961" />
<path d="M 185 262 L 205 190 L -16 238 Z" fill="#000001" fill-opacity="0.501961" />
<path d="M -13 262 L 3 -16 L 73 101 Z" fill="#060e0e" fill-opacity="0.501961" />
<path d="M 109 129 L 15 214 L 105 71 Z" fill="#cbc0bb" fill-opacity="0.501961" />
<path d="M 154 55 L 141 199 L 78 210 Z" fill="#b4b4b4" fill-opacity="0.501961" />
<path d="M 205 103 L 197 -16 L -16 1 Z" fill="#322f2c" fill-opacity="0.501961" />
<path d="M 64 187 L 84 146 L 99 189 Z" fill="#010a11" fill-opacity="0.501961" />
<path d="M 115 41 L 83 134 L 89 42 Z" fill="#c6958a" fill-opacity="0.501961" />
<path d="M 77 207 L -16 234 L 49 262 Z" fill="#000309" fill-opacity="0.501961" />
<path d="M 156 48 L 108 139 L 109 58 Z" fill="#6c4e46" fill-opacity="0.501961" />
<path d="M 33 178 L 72 151 L 39 161 Z" fill="#d7dbd9" fill-opacity="0.501961" />
<path d="M 32 -7 L 79 117 L 49 162 Z" fill="#363a38" fill-opacity="0.501961" />
<path d="M 9 213 L 39 179 L 95 206 Z" fill="#a16056" fill-opacity="0.501961" />
<path d="M 179 196 L 119 208 L 173 129 Z" fill="#6c6c6e" fill-opacity="0.501961" />
<path d="M 166 72 L 127 100 L 139 59 Z" fill="#8b949b" fill-opacity="0.501961" />
<path d="M 70 247 L 119 207 L 76 202 Z" fill="#21406b" fill-opacity="0.501961" />
<path d="M 110 119 L 107 96 L 121 97 Z" fill="#000000" fill-opacity="0.501961" />
<path d="M 28 262 L -16 262 L 4 120 Z" fill="#0a131e" fill-opacity="0.501961" />
<path d="M 59 152 L -16 5 L 94 -16 Z" fill="#323635" fill-opacity="0.501961" />
<path d="M 7 262 L 190 256 L 205 186 Z" fill="#071322" fill-opacity="0.501961" />
<path d="M 95 89 L 43 176 L 111 124 Z" fill="#a7b0af" fill-opacity="0.501961" />
<path d="M 72 198 L 118 201 L 168 156 Z" fill="#aeaba8" fill-opacity="0.501961" />
<path d="M 132 23 L 99 26 L 135 81 Z" fill="#341d11" fill-opacity="0.501961" />
<path d="M 84 133 L 32 201 L 86 163 Z" fill="#807c7a" fill-opacity="0.501961" />
<path d="M 102 91 L 120 88 L 87 35 Z" fill="#ae6d5f" fill-opacity="0.501961" />
</g>
</svg>
