<svg version="1.1" width="360" height="360" xmlns="http://www.w3.org/2000/svg">
<rect x="0" y="0" width="360" height="360" fill="#a58a7a" />
<g transform="scale(1, 1)">
<path d="M 364.65 283.746 L 9.14373 333.709 L 1.35003 278.254 L 356.856 228.291 Z" fill="#3b0000" fill-opacity="0.501961" />
<path d="M 350.865 -63.0191 L 360.168 25.4934 L 3.13484 63.0191 L -6.1682 -25.4934 Z" fill="#ffffff" fill-opacity="0.501961" />
<path d="M 372.547 361.428 L 17.9673 417.588 L 5.45256 338.572 L 360.033 282.412 Z" fill="#dcf7ff" fill-opacity="0.501961" />
<path d="M 346.329 -36.0958 L 352.705 24.5701 L -4.32856 62.0958 L -10.7048 1.42994 Z" fill="#d8efff" fill-opacity="0.501961" />
<path d="M 7.39874 279.562 L -18.905 92.4012 L 336.601 42.4381 L 362.905 229.599 Z" fill="#a17456" fill-opacity="0.501961" />
<path d="M -63.823 302.983 L 103.096 276.546 L 109.823 319.017 L -57.0963 345.454 Z" fill="#6a3c16" fill-opacity="0.501961" />
<path d="M 153.132 313.878 L 144.737 270.686 L 404.868 220.122 L 413.263 263.314 Z" fill="#663b17" fill-opacity="0.501961" />
<path d="M 50.698 358.73 L 406.204 308.767 L 413.302 359.27 L 57.7958 409.233 Z" fill="#cfd5df" fill-opacity="0.501961" />
<path d="M 216.251 247.907 L 218.079 262.795 L -4.25115 290.093 L -6.07919 275.205 Z" fill="#815129" fill-opacity="0.501961" />
<path d="M 61.7425 368.749 L -45.6659 380.038 L -49.7425 341.251 L 57.6659 329.962 Z" fill="#b9bbc3" fill-opacity="0.501961" />
</g>
</svg>
