<svg version="1.1" width="321" height="320" xmlns="http://www.w3.org/2000/svg">
<rect x="0" y="0" width="321" height="320" fill="#7b473a" />
<g transform="scale(1.25391, 1.2549)">
<path d="M 214.108 338.972 L -8.72187 295.658 L 15.8925 169.028 L 238.722 212.342 Z" fill="#692f22" fill-opacity="0.501961" />
<path d="M -30.9948 10.7613 L 210.112 -72.2586 L 242.995 23.2387 L 1.88757 106.259 Z" fill="#8d5d51" fill-opacity="0.501961" />
<path d="M 63.905 291.656 L 41.2126 283.842 L 74.095 188.344 L 96.7874 196.158 Z" fill="#461f19" fill-opacity="0.501961" />
<path d="M 129.328 99.4973 L 228.909 189.161 L 164.672 260.503 L 65.091 170.839 Z" fill="#7f402f" fill-opacity="0.501961" />
<path d="M 249.507 -27.5967 L 287.188 46.3568 L 88.4934 147.597 L 50.8122 73.6432 Z" fill="#814d40" fill-opacity="0.501961" />
<path d="M 223.476 131.767 L 217.477 217.558 L 198.524 216.233 L 204.523 130.442 Z" fill="#66372c" fill-opacity="0.501961" />
<path d="M -1.88623 261.536 L -41.4499 223.33 L 57.8862 120.464 L 97.4499 158.67 Z" fill="#774236" fill-opacity="0.501961" />
<path d="M 159.226 16.4919 L 72.8699 38.0229 L 60.7738 -10.4919 L 147.13 -32.0229 Z" fill="#905c4f" fill-opacity="0.501961" />
<path d="M 23.2351 151.74 L -36.4623 121.323 L 0.764892 48.2601 L 60.4623 78.6774 Z" fill="#80524b" fill-opacity="0.501961" />
<path d="M 252.5 9 L 257.5 9 L 257.5 263 L 252.5 263 Z" fill="#906e60" fill-opacity="0.501961" />
</g>
</svg>
