<svg version="1.1" width="319" height="320" xmlns="http://www.w3.org/2000/svg">
<rect x="0" y="0" width="319" height="320" fill="#827053" />
<g transform="scale(1.24609, 1.25)">
<path d="M 253.018 226.279 L 253.943 279.271 L -1.01809 283.721 L -1.94307 230.729 Z" fill="#ffffff" fill-opacity="0.501961" />
<path d="M -0.890713 -21.2712 L 254.07 -25.7216 L 254.891 21.2712 L -0.0704496 25.7216 Z" fill="#ffffff" fill-opacity="0.501961" />
<path d="M -5.5 24 L 249.5 24 L 249.5 226 L -5.5 226 Z" fill="#533a16" fill-opacity="0.501961" />
<path d="M 255.672 229.063 L 257.173 272.037 L 2.32801 280.937 L 0.82733 237.963 Z" fill="#fffff2" fill-opacity="0.501961" />
<path d="M 6.77248 24.723 L 6.26636 -4.27261 L 261.228 -8.72297 L 261.734 20.2726 Z" fill="#fdffff" fill-opacity="0.501961" />
<path d="M 260.994 111.337 L 270.755 222.911 L 205.006 228.663 L 195.245 117.089 Z" fill="#88633e" fill-opacity="0.501961" />
<path d="M -9.86483 182.421 L -9.0286 174.465 L 191.865 195.579 L 191.029 203.535 Z" fill="#372819" fill-opacity="0.501961" />
<path d="M 11.8309 77.023 L 156.037 92.1797 L 152.169 128.977 L 7.96339 113.82 Z" fill="#504128" fill-opacity="0.501961" />
<path d="M 56.9747 156.467 L 57.2364 151.474 L 211.025 159.533 L 210.764 164.526 Z" fill="#2e1f10" fill-opacity="0.501961" />
<path d="M 290.5 133 L 209.5 133 L 209.5 23 L 290.5 23 Z" fill="#7b5a3c" fill-opacity="0.501961" />
</g>
</svg>
