<svg version="1.1" width="360" height="360" xmlns="http://www.w3.org/2000/svg">
<rect x="0" y="0" width="360" height="360" fill="#867977" />
<g transform="scale(1, 1)">
<path d="M 413.82 2.59831 L 395.031 361.106 L 286.18 355.402 L 304.969 -3.10631 Z" fill="#605859" fill-opacity="0.501961" />
<path d="M 66.3995 259.898 L 69.6282 74.9259 L 251.6 78.1023 L 248.372 263.074 Z" fill="#9f9593" fill-opacity="0.501961" />
<path d="M 339.756 84.712 L 195.953 77.1756 L 200.244 -4.712 L 344.047 2.82438 Z" fill="#746d6c" fill-opacity="0.501961" />
<path d="M -25.5488 50.2788 L 46.1773 44.0036 L 75.5488 379.721 L 3.82273 385.996 Z" fill="#927d73" fill-opacity="0.501961" />
<path d="M 248.869 373.798 L 241.335 266.061 L 325.131 260.202 L 332.665 367.939 Z" fill="#79706e" fill-opacity="0.501961" />
<path d="M 37.8386 368.091 L 68.1587 262.352 L 192.161 297.909 L 161.841 403.648 Z" fill="#90817f" fill-opacity="0.501961" />
<path d="M 184.639 131.479 L 187.517 76.5545 L 301.361 82.5208 L 298.483 137.445 Z" fill="#86858a" fill-opacity="0.501961" />
<path d="M 202.169 212.524 L 279.718 197.45 L 289.831 249.476 L 212.282 264.55 Z" fill="#8b8789" fill-opacity="0.501961" />
<path d="M 177 75.4949 L 176.983 76.4947 L 63 74.5051 L 63.0174 73.5053 Z" fill="#5a4a48" fill-opacity="0.501961" />
<path d="M 65.5 252.5 L 60.5 252.5 L 60.5 101.5 L 65.5 101.5 Z" fill="#745b50" fill-opacity="0.501961" />
</g>
</svg>
