<svg version="1.1" width="320" height="320" xmlns="http://www.w3.org/2000/svg">
<rect x="0" y="0" width="320" height="320" fill="#c7bbab" />
<g transform="scale(1.25, 1.25)">
<path d="M -0.5 62.5 L -0.5 7.5 L 254.5 7.5 L 254.5 62.5 Z" fill="#af8e68" fill-opacity="0.501961" />
<path d="M -0.5 155.5 L 254.5 155.5 L 254.5 238.5 L -0.5 238.5 Z" fill="#d6d8db" fill-opacity="0.501961" />
<path d="M 212.5 148.5 L 212.5 153.5 L -4.5 153.5 L -4.5 148.5 Z" fill="#66584a" fill-opacity="0.501961" />
<path d="M -0.5 5.5 L -0.5 -5.5 L 254.5 -5.5 L 254.5 5.5 Z" fill="#eaf7ff" fill-opacity="0.501961" />
<path d="M 243.385 76.7243 L -11.5766 72.274 L -11.3846 61.2757 L 243.577 65.726 Z" fill="#e1eaf4" fill-opacity="0.501961" />
<path d="M 195.5 56.5 L 195.5 61.5 L -59.5 61.5 L -59.5 56.5 Z" fill="#756350" fill-opacity="0.501961" />
<path d="M 269.159 74.9631 L 267.815 151.951 L 100.841 149.037 L 102.185 72.0486 Z" fill="#d5ba94" fill-opacity="0.501961" />
<path d="M 262.398 152.796 L 261.561 168.774 L 231.602 167.204 L 232.439 151.226 Z" fill="#ffffff" fill-opacity="0.501961" />
<path d="M 222.646 347.192 L -14.4831 256.166 L 21.3537 162.808 L 258.483 253.834 Z" fill="#c0bfbe" fill-opacity="0.501961" />
<path d="M 62.5 27 L 62.5 55 L -8.5 55 L -8.5 27 Z" fill="#cbc1a9" fill-opacity="0.501961" />
</g>
</svg>
