<svg version="1.1" width="640" height="428" xmlns="http://www.w3.org/2000/svg">
<rect x="0" y="0" width="640" height="428" fill="#69686d" />
<g transform="scale(1, 1)">
<path d="M 132.165 28.5109 L 249.147 30.5529 L 241.835 449.489 L 124.853 447.447 Z" fill="#ffffff" fill-opacity="0.501961" />
<path d="M 523.413 451.225 L 415.676 458.759 L 386.587 42.7747 L 494.324 35.241 Z" fill="#ffffff" fill-opacity="0.501961" />
<path d="M 470.08 14.5651 L 627.122 -10.308 L 693.92 411.435 L 536.878 436.308 Z" fill="#000000" fill-opacity="0.501961" />
<path d="M 514.291 190.402 L 512.65 284.387 L 123.709 277.598 L 125.35 183.613 Z" fill="#ffffff" fill-opacity="0.501961" />
<path d="M 163.61 -3.88814 L 99.59 451.635 L -83.6096 425.888 L -19.59 -29.6352 Z" fill="#000000" fill-opacity="0.501961" />
<path d="M 401.777 186.39 L 240.802 183.58 L 244.223 -12.39 L 405.198 -9.58016 Z" fill="#000000" fill-opacity="0.501961" />
<path d="M 247 280 L 365 280 L 365 432 L 247 432 Z" fill="#000000" fill-opacity="0.501961" />
<path d="M 408.5 280 L 201.5 280 L 201.5 198 L 408.5 198 Z" fill="#ffffff" fill-opacity="0.501961" />
<path d="M 520.049 429.893 L 430.104 433.034 L 425.951 314.107 L 515.896 310.966 Z" fill="#ffffff" fill-opacity="0.501961" />
<path d="M 224.21 466.37 L 123.225 464.607 L 125.79 317.63 L 226.775 319.393 Z" fill="#ffffff" fill-opacity="0.501961" />
<path d="M 153.378 27.721 L 235.365 26.2899 L 236.622 98.279 L 154.635 99.7101 Z" fill="#ffffff" fill-opacity="0.501961" />
<path d="M 399.696 37.773 L 483.683 39.239 L 482.304 118.227 L 398.317 116.761 Z" fill="#ffffff" fill-opacity="0.501961" />
<path d="M 359.748 442.724 L 351.322 281.945 L 402.252 279.276 L 410.678 440.055 Z" fill="#0a0a12" fill-opacity="0.501961" />
<path d="M 123 190.5 L 159 190.5 L 159 315.5 L 123 315.5 Z" fill="#ffffff" fill-opacity="0.501961" />
<path d="M 452.182 96.8572 L 455.812 200.794 L 445.818 201.143 L 442.188 97.2062 Z" fill="#000000" fill-opacity="0.501961" />
<path d="M 361.31 22.9603 L 370.166 -27.2649 L 530.69 1.03973 L 521.834 51.2649 Z" fill="#000008" fill-opacity="0.501961" />
<path d="M 206.368 323.634 L 180.621 320.016 L 185.632 284.366 L 211.379 287.984 Z" fill="#000000" fill-opacity="0.501961" />
<path d="M 117.043 78.3051 L 151.038 77.7117 L 152.957 187.695 L 118.962 188.288 Z" fill="#000007" fill-opacity="0.501961" />
<path d="M 196.5 225.5 L 196.5 68.5 L 231.5 68.5 L 231.5 225.5 Z" fill="#ffffff" fill-opacity="0.501961" />
<path d="M 268.136 -39.19 L 278.483 5.63101 L -40.1356 79.19 L -50.4834 34.369 Z" fill="#05040a" fill-opacity="0.501961" />
<path d="M 402.922 116.792 L 484.91 118.224 L 483.078 223.208 L 401.09 221.776 Z" fill="#ffffff" fill-opacity="0.501961" />
<path d="M 198 84 L 198 182 L 186 182 L 186 84 Z" fill="#000000" fill-opacity="0.501961" />
<path d="M 157.278 232.484 L 152.741 102.563 L 182.722 101.516 L 187.259 231.437 Z" fill="#ffffff" fill-opacity="0.501961" />
<path d="M 307.476 198.102 L 329.227 187.959 L 338.524 207.898 L 316.773 218.041 Z" fill="#000000" fill-opacity="0.501961" />
<path d="M 507.072 193.299 L 485.075 193.683 L 482.928 70.7013 L 504.925 70.3174 Z" fill="#000007" fill-opacity="0.501961" />
</g>
</svg>
