<svg version="1.1" width="640" height="428" xmlns="http://www.w3.org/2000/svg">
<rect x="0" y="0" width="640" height="428" fill="#69686d" />
<g transform="scale(1, 1)">
<path d="M 125.385 182.596 L 516.325 189.419 L 514.615 287.404 L 123.675 280.581 Z" fill="#ffffff" fill-opacity="0.501961" />
<path d="M 443.668 516.74 L 393.808 42.3535 L 480.332 33.2595 L 530.192 507.646 Z" fill="#ffffff" fill-opacity="0.501961" />
<path d="M 248.903 29.4252 L 217.861 473.341 L 121.097 466.575 L 152.139 22.6588 Z" fill="#ffffff" fill-opacity="0.501961" />
<path d="M 635.178 -71.1078 L 721.133 416.372 L 546.822 447.108 L 460.867 -40.3721 Z" fill="#000000" fill-opacity="0.501961" />
<path d="M 236.874 -58.0852 L 396.85 -60.8775 L 401.126 184.085 L 241.15 186.878 Z" fill="#000000" fill-opacity="0.501961" />
<path d="M 94.6163 431.386 L -63.4138 406.357 L 3.38369 -15.3862 L 161.414 9.6433 Z" fill="#000000" fill-opacity="0.501961" />
<path d="M 403.5 280 L 403.5 446 L 244.5 446 L 244.5 280 Z" fill="#000000" fill-opacity="0.501961" />
<path d="M 511.17 283.1 L 155.224 276.886 L 156.83 184.9 L 512.776 191.114 Z" fill="#ffffff" fill-opacity="0.501961" />
<path d="M 425.5 441.5 L 425.5 314.5 L 516.5 314.5 L 516.5 441.5 Z" fill="#ffffff" fill-opacity="0.501961" />
<path d="M 206.159 292.335 L 243.153 291.689 L 245.841 445.665 L 208.847 446.311 Z" fill="#ffffff" fill-opacity="0.501961" />
</g>
</svg>
