<svg version="1.1" width="320" height="319" xmlns="http://www.w3.org/2000/svg">
<rect x="0" y="0" width="320" height="319" fill="#a47d54" />
<g transform="scale(1.25, 1.25098)">
<path d="M 120.019 140.459 L 49.1962 279.456 L -88.0188 209.541 L -17.1962 70.5442 Z" fill="#976129" fill-opacity="0.501961" />
<path d="M 142.531 -60.6426 L 301.278 -12.1089 L 259.469 124.643 L 100.722 76.1089 Z" fill="#b2987e" fill-opacity="0.501961" />
<path d="M 164.82 270.03 L 174.446 132.366 L 283.18 139.97 L 273.554 277.634 Z" fill="#ad8767" fill-opacity="0.501961" />
<path d="M -50.9923 46.7655 L 13.8218 -45.7987 L 80.9923 1.23454 L 16.1782 93.7987 Z" fill="#946b42" fill-opacity="0.501961" />
<path d="M 255.554 175.492 L 257.552 175.562 L 254.446 264.508 L 252.448 264.438 Z" fill="#abc3db" fill-opacity="0.501961" />
<path d="M 212.183 101.265 L 159.669 157.579 L 55.817 60.7352 L 108.331 4.421 Z" fill="#ab845e" fill-opacity="0.501961" />
<path d="M -11.2044 206.266 L 0.495079 110.981 L 39.2044 115.734 L 27.5049 211.019 Z" fill="#955f28" fill-opacity="0.501961" />
<path d="M 40.8991 258.598 L 65.2099 120.725 L 137.101 133.402 L 112.79 271.275 Z" fill="#a47649" fill-opacity="0.501961" />
<path d="M 60.4078 25.1335 L 92.2763 129.371 L 41.5922 144.866 L 9.72367 40.6292 Z" fill="#a57a4d" fill-opacity="0.501961" />
<path d="M 219.483 76.986 L 180.339 18.9534 L 242.517 -22.986 L 281.661 35.0466 Z" fill="#af9379" fill-opacity="0.501961" />
</g>
</svg>
