<svg version="1.1" width="360" height="360" xmlns="http://www.w3.org/2000/svg">
<rect x="0" y="0" width="360" height="360" fill="#9d6a46" />
<g transform="scale(1, 1)">
<path d="M 327.764 -26.9675 L 335.87 65.6786 L -21.7642 96.9675 L -29.8697 4.3214 Z" fill="#c4cbd6" fill-opacity="0.501961" />
<path d="M 385.092 248.931 L 32.688 317.431 L -5.09217 123.069 L 347.312 54.5687 Z" fill="#883300" fill-opacity="0.501961" />
<path d="M 11.2467 414.653 L -7.19931 334.755 L 336.753 255.347 L 355.199 335.245 Z" fill="#bcb4b1" fill-opacity="0.501961" />
<path d="M 366.27 -16.4258 L 373.243 63.2698 L 245.73 74.4258 L 238.757 -5.26982 Z" fill="#958173" fill-opacity="0.501961" />
<path d="M 13.86 225.983 L 38.536 324.953 L -13.86 338.017 L -38.536 239.047 Z" fill="#843900" fill-opacity="0.501961" />
<path d="M 223.832 114.952 L 361.983 59.1355 L 424.168 213.048 L 286.017 268.864 Z" fill="#7b3501" fill-opacity="0.501961" />
<path d="M 408.302 316.444 L 273.078 425.945 L 217.698 357.556 L 352.922 248.055 Z" fill="#967c68" fill-opacity="0.501961" />
<path d="M 244.065 74.7566 L 258.969 245.106 L 5.93509 267.243 L -8.96854 96.8941 Z" fill="#9d5919" fill-opacity="0.501961" />
<path d="M -41.9213 32.9814 L 155.596 19.1696 L 159.921 81.0186 L -37.5964 94.8304 Z" fill="#c2afa7" fill-opacity="0.501961" />
<path d="M 212.887 318.868 L 59.5803 357.092 L 51.113 323.132 L 204.42 284.908 Z" fill="#bea395" fill-opacity="0.501961" />
</g>
</svg>
