<svg version="1.1" width="362" height="364" xmlns="http://www.w3.org/2000/svg">
<rect x="0" y="0" width="362" height="364" fill="#8e7b6f" />
<g transform="scale(2.82812, 2.84375)">
<path d="M 2.3314 3.05691 L 100.593 15.122 L 97.6686 38.9431 L -0.593467 26.878 Z" fill="#875f38" fill-opacity="0.501961" />
<path d="M 116.849 86.0625 L 112.256 118.741 L 21.1513 105.937 L 25.744 73.2586 Z" fill="#9b9195" fill-opacity="0.501961" />
<path d="M 58.6748 76.0168 L -8.81835 67.7297 L -4.67479 33.9832 L 62.8183 42.2703 Z" fill="#92663f" fill-opacity="0.501961" />
<path d="M 148.893 20.9553 L 25.8169 5.84347 L 29.1074 -20.9553 L 152.183 -5.84347 Z" fill="#8892a5" fill-opacity="0.501961" />
<path d="M 38.1474 172.527 L -64.5977 97.8785 L -38.1474 61.4728 L 64.5977 136.121 Z" fill="#6e6268" fill-opacity="0.501961" />
<path d="M 44.119 52.0875 L 65.2452 12.3548 L 135.881 49.9125 L 114.755 89.6452 Z" fill="#9d8974" fill-opacity="0.501961" />
<path d="M 125.191 165.337 L 104.577 161.33 L 128.809 36.6632 L 149.423 40.6702 Z" fill="#6a768a" fill-opacity="0.501961" />
<path d="M 3.53187 34.9789 L 4.38495 28.0311 L 126.468 43.0211 L 125.615 49.9689 Z" fill="#a4a0a7" fill-opacity="0.501961" />
<path d="M 8.54148 29.8734 L 4.42881 46.3685 L 3.45852 46.1266 L 7.57119 29.6315 Z" fill="#ffde95" fill-opacity="0.501961" />
<path d="M 24.5525 28.2009 L 7.61721 26.7192 L 9.44748 5.79913 L 26.3828 7.28078 Z" fill="#7e532f" fill-opacity="0.501961" />
</g>
</svg>
