<svg version="1.1" width="360" height="360" xmlns="http://www.w3.org/2000/svg">
<rect x="0" y="0" width="360" height="360" fill="#bd8867" />
<g transform="scale(1.40625, 1.40625)">
<path d="M 253.593 18.3464 L 255.058 46.308 L 0.407438 59.6536 L -1.05797 31.692 Z" fill="#000000" fill-opacity="0.501961" />
<path d="M 251.849 126.313 L -2.80191 139.659 L -3.84863 119.687 L 250.802 106.341 Z" fill="#000000" fill-opacity="0.501961" />
<path d="M 279.318 102.814 L 25.6656 116.108 L 22.6825 59.1857 L 276.334 45.8924 Z" fill="#ffffb3" fill-opacity="0.501961" />
<path d="M 253.108 174.556 L 253.736 192.545 L -1.10823 201.444 L -1.73643 183.455 Z" fill="#000000" fill-opacity="0.501961" />
<path d="M 255.157 191.686 L 256.692 235.659 L 8.84333 244.314 L 7.30775 200.341 Z" fill="#fff0a6" fill-opacity="0.501961" />
<path d="M 18.0365 139.705 L 253.713 127.354 L 255.964 170.295 L 20.2869 182.646 Z" fill="#ffeeb9" fill-opacity="0.501961" />
<path d="M 256.876 263.542 L 2.03136 272.442 L 1.12398 246.458 L 255.969 237.558 Z" fill="#450000" fill-opacity="0.501961" />
<path d="M 87.7291 25.0751 L 53.9154 28.6291 L 48.2709 -25.0751 L 82.0846 -28.6291 Z" fill="#ddffff" fill-opacity="0.501961" />
<path d="M 144.404 132.17 L 143.706 112.182 L 325.596 105.83 L 326.294 125.818 Z" fill="#480003" fill-opacity="0.501961" />
<path d="M 6.78865 61.7403 L 224.49 50.331 L 227.211 102.26 L 9.51012 113.669 Z" fill="#ffd38b" fill-opacity="0.501961" />
</g>
</svg>
