<svg version="1.1" width="320" height="320" xmlns="http://www.w3.org/2000/svg">
<rect x="0" y="0" width="320" height="320" fill="#cfc0b1" />
<g transform="scale(1.25, 1.25)">
<path d="M 125.511 127.065 L 271.056 90.7768 L 310.489 248.935 L 164.944 285.223 Z" fill="#d6d6d2" fill-opacity="0.501961" />
<path d="M -9.60313 167.903 L -89.8988 78.7255 L 99.6031 -91.9028 L 179.899 -2.72546 Z" fill="#c7aa93" fill-opacity="0.501961" />
<path d="M -1.5702 258.269 L -45.6722 104.467 L 47.5702 77.7307 L 91.6722 231.533 Z" fill="#d9bda4" fill-opacity="0.501961" />
<path d="M 152.286 40.7667 L 253.225 37.2418 L 253.714 51.2333 L 152.775 54.7582 Z" fill="#d5d3cc" fill-opacity="0.501961" />
<path d="M 243.039 -7.91133 L 98.4861 101.017 L 56.9609 45.9113 L 201.514 -63.0172 Z" fill="#c7b8ab" fill-opacity="0.501961" />
<path d="M 172.702 115.116 L 165.218 257.92 L 107.298 254.884 L 114.782 112.08 Z" fill="#cfc5ba" fill-opacity="0.501961" />
<path d="M 312.384 227.15 L 244.772 281.901 L 185.616 208.85 L 253.228 154.099 Z" fill="#d5d1ce" fill-opacity="0.501961" />
<path d="M 97.687 -7.36995 L 98.2978 27.6247 L -1.68697 29.37 L -2.2978 -5.62471 Z" fill="#c1ac9a" fill-opacity="0.501961" />
<path d="M 104.861 116.917 L 99.8253 88.3578 L 209.139 69.0828 L 214.175 97.6422 Z" fill="#cdb8a7" fill-opacity="0.501961" />
<path d="M 40.7815 147.561 L -11.1868 149.376 L -14.7815 46.4388 L 37.1868 44.624 Z" fill="#d1b49c" fill-opacity="0.501961" />
</g>
</svg>
