<svg version="1.1" width="360" height="360" xmlns="http://www.w3.org/2000/svg">
<rect x="0" y="0" width="360" height="360" fill="#be8968" />
<g transform="scale(1, 1)">
<path d="M 4.76655 82.8676 L 2.72545 43.921 L 361.233 25.1324 L 363.275 64.079 Z" fill="#000000" fill-opacity="0.501961" />
<path d="M 357.937 243.743 L 358.844 269.728 L 0.06304 282.257 L -0.844347 256.272 Z" fill="#000000" fill-opacity="0.501961" />
<path d="M 354.495 149.126 L 356.013 178.086 L -2.49513 196.874 L -4.01287 167.914 Z" fill="#000000" fill-opacity="0.501961" />
<path d="M 23.1257 83.9236 L 380.635 65.1874 L 384.874 146.076 L 27.3649 164.813 Z" fill="#ffffb2" fill-opacity="0.501961" />
<path d="M 20.1498 196.936 L 378.658 178.147 L 381.85 239.064 L 23.3422 257.853 Z" fill="#ffeeb9" fill-opacity="0.501961" />
<path d="M 381.473 331.717 L 22.6912 344.246 L 20.5275 282.283 L 379.309 269.754 Z" fill="#fff4aa" fill-opacity="0.501961" />
<path d="M 1.25499 383.753 L -0.0362941 346.776 L 358.745 334.247 L 360.036 371.224 Z" fill="#450000" fill-opacity="0.501961" />
<path d="M 116.943 -39.9078 L 124.783 34.6814 L 75.0568 39.9078 L 67.2171 -34.6814 Z" fill="#deffff" fill-opacity="0.501961" />
<path d="M 376.752 149.224 L 75.9353 159.729 L 73.248 82.7758 L 374.065 72.2711 Z" fill="#ffde97" fill-opacity="0.501961" />
<path d="M 154.043 78.1104 L -10.8565 83.8689 L -12.043 49.8896 L 152.856 44.1311 Z" fill="#1e000c" fill-opacity="0.501961" />
</g>
</svg>
