<svg version="1.1" width="360" height="360" xmlns="http://www.w3.org/2000/svg">
<rect x="0" y="0" width="360" height="360" fill="#8b7d7e" />
<g transform="scale(1, 1)">
<path d="M 64.5648 243.21 L 76.5856 128.84 L 285.435 150.79 L 273.414 265.16 Z" fill="#200000" fill-opacity="0.501961" />
<path d="M 265.509 333.804 L 289.76 103.075 L 338.491 108.196 L 314.24 338.925 Z" fill="#c7d2de" fill-opacity="0.501961" />
<path d="M 258.054 151.204 L 248.379 261.782 L 99.9464 248.796 L 109.621 138.218 Z" fill="#440000" fill-opacity="0.501961" />
<path d="M 31.6588 298.953 L 39.0928 238.408 L 272.341 267.047 L 264.907 327.592 Z" fill="#bfc1c6" fill-opacity="0.501961" />
<path d="M 75.2668 221.712 L 83.9195 151.241 L 108.733 154.288 L 100.08 224.759 Z" fill="#bfb9b6" fill-opacity="0.501961" />
<path d="M 45.3746 132.635 L 54.3732 3.9495 L 360.625 25.3647 L 351.627 154.05 Z" fill="#a4a6ab" fill-opacity="0.501961" />
<path d="M 298.38 256.026 L 304.757 195.36 L 329.62 197.974 L 323.243 258.64 Z" fill="#ffffff" fill-opacity="0.501961" />
<path d="M 60.6444 249.763 L 32.8531 246.35 L 47.3556 128.237 L 75.1469 131.65 Z" fill="#c4b2a9" fill-opacity="0.501961" />
<path d="M -2.20519 58.3156 L 47.2375 -93.8535 L 378.205 13.6844 L 328.762 165.853 Z" fill="#979397" fill-opacity="0.501961" />
<path d="M 329.5 302 L 329.5 -20 L 362.5 -20 L 362.5 302 Z" fill="#838891" fill-opacity="0.501961" />
</g>
</svg>
