<svg version="1.1" width="320" height="320" xmlns="http://www.w3.org/2000/svg">
<rect x="0" y="0" width="320" height="320" fill="#cfc0b1" />
<g transform="scale(1.25, 1.25)">
<path d="M 165.764 292.895 L 124.395 126.974 L 260.236 93.1052 L 301.605 259.026 Z" fill="#d6d6d2" fill-opacity="0.501961" />
<path d="M 169.383 7.54837 L -16.4033 174.831 L -101.383 80.4516 L 84.4033 -86.831 Z" fill="#c7aa93" fill-opacity="0.501961" />
<path d="M -13.5104 264.464 L -7.43785 90.5698 L 77.5104 93.5362 L 71.4379 267.43 Z" fill="#d9bea6" fill-opacity="0.501961" />
<path d="M 147.79 40.9586 L 259.722 37.0499 L 260.21 51.0414 L 148.278 54.9501 Z" fill="#d5d2cb" fill-opacity="0.501961" />
<path d="M 165.738 297.886 L 111.771 296.001 L 118.262 110.114 L 172.229 111.999 Z" fill="#cfc6ba" fill-opacity="0.501961" />
<path d="M 92.1166 95.1424 L 60.8018 48.7163 L 205.883 -49.1424 L 237.198 -2.71633 Z" fill="#c7b8ab" fill-opacity="0.501961" />
<path d="M 247.83 286.214 L 186.786 210.83 L 262.17 149.786 L 323.214 225.17 Z" fill="#d5d1ce" fill-opacity="0.501961" />
<path d="M 95.1765 -8.07058 L 95.8048 27.9239 L -27.1765 30.0706 L -27.8048 -5.92394 Z" fill="#c1ac9a" fill-opacity="0.501961" />
<path d="M 108.46 116.182 L 106.13 107.488 L 179.54 87.8182 L 181.87 96.5115 Z" fill="#cab09d" fill-opacity="0.501961" />
<path d="M 37.7003 147.98 L -45.9801 140.659 L -37.7003 46.0202 L 45.9801 53.3413 Z" fill="#d1b39a" fill-opacity="0.501961" />
</g>
</svg>
