<svg version="1.1" width="360" height="360" xmlns="http://www.w3.org/2000/svg">
<rect x="0" y="0" width="360" height="360" fill="#a08772" />
<g transform="scale(1, 1)">
<path d="M 172.472 121.812 L 153.866 298.836 L 33.5284 286.188 L 52.1345 109.164 Z" fill="#9f5e16" fill-opacity="0.501961" />
<path d="M 337.691 7.77349 L 416.475 21.6653 L 354.309 374.227 L 275.525 360.335 Z" fill="#95abca" fill-opacity="0.501961" />
<path d="M -14.5934 273.72 L 282.589 342.33 L 264.593 420.28 L -32.5895 351.67 Z" fill="#a5abbe" fill-opacity="0.501961" />
<path d="M 313.664 146.937 L 277.029 335.409 L 100.336 301.063 L 136.971 112.591 Z" fill="#af7d48" fill-opacity="0.501961" />
<path d="M 13.0403 10.2164 L 20.3524 -49.3364 L 338.96 -10.2164 L 331.648 49.3364 Z" fill="#93a0b9" fill-opacity="0.501961" />
<path d="M 65.7034 20.2259 L 190.228 31.1204 L 182.297 121.774 L 57.7722 110.88 Z" fill="#a16d33" fill-opacity="0.501961" />
<path d="M 29.2549 308.48 L -62.0594 297.268 L -25.2549 -2.48046 L 66.0594 8.73152 Z" fill="#9394a6" fill-opacity="0.501961" />
<path d="M 307.104 47.4147 L 312.652 153.269 L 134.896 162.585 L 129.348 56.7305 Z" fill="#b38e65" fill-opacity="0.501961" />
<path d="M 85.5761 130.482 L 72.1705 239.662 L 38.4239 235.518 L 51.8295 126.338 Z" fill="#8e5b26" fill-opacity="0.501961" />
<path d="M 65.5926 17.4368 L 110.257 22.921 L 104.407 70.5632 L 59.7428 65.079 Z" fill="#89633e" fill-opacity="0.501961" />
</g>
</svg>
