<svg version="1.1" width="360" height="360" xmlns="http://www.w3.org/2000/svg">
<rect x="0" y="0" width="360" height="360" fill="#a48979" />
<g transform="scale(1.40625, 1.40625)">
<path d="M -4.14645 -18.4973 L 249.457 -45.1521 L 256.146 18.4973 L 2.54337 45.1521 Z" fill="#ffffff" fill-opacity="0.501961" />
<path d="M 6.4547 237.055 L 1.02695 198.434 L 253.545 162.945 L 258.973 201.566 Z" fill="#3a0000" fill-opacity="0.501961" />
<path d="M 256.458 203.091 L 266.061 271.42 L 13.5423 306.909 L 3.93935 238.58 Z" fill="#dcf7ff" fill-opacity="0.501961" />
<path d="M 253.957 163.147 L 1.43914 198.636 L -15.9575 74.8528 L 236.561 39.3637 Z" fill="#a07355" fill-opacity="0.501961" />
<path d="M -12.4148 -5.53567 L 241.188 -32.1904 L 246.415 17.5357 L -7.18833 44.1904 Z" fill="#d8f0ff" fill-opacity="0.501961" />
<path d="M 157.898 214.11 L -39.6401 245.397 L -45.8975 205.89 L 151.64 174.603 Z" fill="#70411a" fill-opacity="0.501961" />
<path d="M 310.496 150.894 L 316.942 181.216 L 157.504 215.106 L 151.058 184.784 Z" fill="#643814" fill-opacity="0.501961" />
<path d="M 281.773 255.699 L 45.0985 288.961 L 40.2274 254.301 L 276.902 221.039 Z" fill="#d0d5df" fill-opacity="0.501961" />
<path d="M -3.666 263.954 L -6.27922 239.091 L 3.666 238.046 L 6.27922 262.909 Z" fill="#d1e7fa" fill-opacity="0.501961" />
<path d="M -15.2723 234.134 L -8.20327 200.877 L 15.2723 205.866 L 8.20327 239.123 Z" fill="#5d321e" fill-opacity="0.501961" />
</g>
</svg>
