<svg version="1.1" width="360" height="360" xmlns="http://www.w3.org/2000/svg">
<rect x="0" y="0" width="360" height="360" fill="#9c6a45" />
<g transform="scale(1.40625, 1.40625)">
<path d="M -3.8167 67.3615 L -10.2662 -6.35694 L 229.817 -27.3615 L 236.266 46.3569 Z" fill="#c5cbd7" fill-opacity="0.501961" />
<path d="M -5.37159 90.5493 L 244.056 37.5319 L 273.372 175.451 L 23.944 228.468 Z" fill="#883200" fill-opacity="0.501961" />
<path d="M 2.50647 236.338 L 249.996 179.2 L 263.494 237.662 L 16.0035 294.8 Z" fill="#bab1af" fill-opacity="0.501961" />
<path d="M 265.821 43.1485 L 276.545 130.493 L 192.179 140.851 L 181.455 53.5074 Z" fill="#773100" fill-opacity="0.501961" />
<path d="M 311.45 41.1713 L 168.995 53.6346 L 164.55 2.82867 L 307.005 -9.6346 Z" fill="#968376" fill-opacity="0.501961" />
<path d="M 11.656 173.931 L 24.7032 230.445 L 0.343955 236.069 L -12.7032 179.555 Z" fill="#813400" fill-opacity="0.501961" />
<path d="M 106.658 59.758 L 110.076 108.639 L 1.34179 116.242 L -2.07627 67.3614 Z" fill="#9f5b18" fill-opacity="0.501961" />
<path d="M 164.328 196.716 L 154.024 143.708 L 279.672 119.284 L 289.976 172.292 Z" fill="#803903" fill-opacity="0.501961" />
<path d="M 303.861 210.348 L 204.28 300.011 L 166.139 257.652 L 265.72 167.989 Z" fill="#92755f" fill-opacity="0.501961" />
<path d="M 149.567 54.4499 L 165.532 184.473 L -87.5672 215.55 L -103.532 85.5266 Z" fill="#9c581b" fill-opacity="0.501961" />
</g>
</svg>
