<svg version="1.1" width="360" height="360" xmlns="http://www.w3.org/2000/svg">
<rect x="0" y="0" width="360" height="360" fill="#a48c7d" />
<g transform="scale(1, 1)">
<path d="M 84.7915 50.6615 L 275.36 74.0604 L 247.209 303.339 L 56.6397 279.94 Z" fill="#853900" fill-opacity="0.501961" />
<path d="M 14.5635 44.5317 L 22.4031 -30.0574 L 379.436 7.46829 L 371.597 82.0574 Z" fill="#bfcce0" fill-opacity="0.501961" />
<path d="M 350.72 404.27 L 260.606 391.606 L 305.28 73.7296 L 395.394 86.3944 Z" fill="#b4c2d7" fill-opacity="0.501961" />
<path d="M 275.777 320.614 L 257.078 416.813 L -17.7774 363.386 L 0.921835 267.187 Z" fill="#bcc3d1" fill-opacity="0.501961" />
<path d="M 84.4893 47.2777 L 55.7281 281.519 L -48.4893 268.722 L -19.7281 34.4814 Z" fill="#b2b4c0" fill-opacity="0.501961" />
<path d="M 303.417 75.3262 L 274.33 282.292 L 248.583 278.674 L 277.67 71.7077 Z" fill="#8f4f17" fill-opacity="0.501961" />
<path d="M 121.841 255.985 L 58.4637 247.078 L 86.1591 50.0148 L 149.536 58.9219 Z" fill="#874f1f" fill-opacity="0.501961" />
<path d="M 171.422 243.757 L 278.371 258.788 L 270.578 314.243 L 163.629 299.212 Z" fill="#a3734c" fill-opacity="0.501961" />
<path d="M 172.478 58.0277 L 174.55 41.1544 L 311.522 57.9723 L 309.45 74.8456 Z" fill="#cdcdd3" fill-opacity="0.501961" />
<path d="M 110.72 303.211 L 113.201 290.45 L 269.28 320.789 L 266.799 333.55 Z" fill="#d4cfd3" fill-opacity="0.501961" />
</g>
</svg>
