<?xml version="1.0" encoding="UTF-8" standalone="no"?> <!-- Created with Vectornator for iOS (http://vectornator.io/) --><!DOCTYPE svg PUBLIC "-//W3C//DTD SVG 1.1//EN" "http://www.w3.org/Graphics/SVG/1.1/DTD/svg11.dtd">
<svg height="100%" style="fill-rule:evenodd;clip-rule:evenodd;stroke-linecap:round;stroke-linejoin:round;" xmlns:xlink="http://www.w3.org/1999/xlink" xmlns="http://www.w3.org/2000/svg" xml:space="preserve" width="100%" xmlns:vectornator="http://vectornator.io" version="1.1" viewBox="0 0 100 100">
<metadata>
<vectornator:setting key="DisplayWhiteBackground" value="0"/>
<vectornator:setting key="RulersVisible" value="1"/>
<vectornator:setting key="GridSpacing" value="36"/>
<vectornator:setting key="Units" value="Pixels"/>
<vectornator:setting key="DynamicGuides" value="0"/>
<vectornator:setting key="SnapToPoints" value="0"/>
<vectornator:setting key="SnapToGrid" value="0"/>
<vectornator:setting key="SnapToGuides" value="1"/>
<vectornator:setting key="ShowGrid" value="1"/>
<vectornator:setting key="SnapToEdges" value="0"/>
</metadata>
<defs/>
<g id="Layer 2" vectornator:layerName="Layer 2">
<path stroke="#ffffff" stroke-width="1" d="M93.0713+43.7561C93.1971+53.8173+93.9811+64.9593+92.176+74.732C91.1812+80.1179+93.1362+86.5414+92.6209+91.8281L91.9975+91.8281C90.46+76.0552+92.3751+59.7681+92.5754+43.7561" fill="#000000" stroke-linecap="butt" opacity="1" stroke-linejoin="round"/>
<path stroke="#ffffff" stroke-width="1" d="M7.77384+41.9566C9.04008+54.2229+8.7443+67.0951+8.66793+79.3174C8.65963+80.6458+8.22937+90.6013+8.41874+90.7141L8.41874+90.7141C7.82777+90.8748+7.87946+90.0611+7.8484+89.6002C7.52366+84.7804+8.97128+79.7366+7.91621+75.0942C7.17535+71.8344+8.07258+67.5804+8.00269+64.1503C7.85296+56.8022+7.57819+49.3332+7.34984+41.9566" fill="#000000" stroke-linecap="butt" opacity="1" stroke-linejoin="round"/>
<path stroke="#ffffff" stroke-width="1" d="M8.67581+90.9138C21.4335+98.5777+45.923+100.053+63.2236+98.6103C69.1055+98.1198+75.6452+97.8066+81.2679+96.0047C82.1243+95.7302+91.6822+92.4491+91.7165+92.9278L91.7022+92.9564C91.8232+91.7399+89.4548+93.9238+88.3664+94.4804C86.4166+95.4776+83.9373+95.7089+81.8754+96.5695C76.2552+98.9153+69.2389+98.4426+63.297+99.2704C60.384+99.6762+57.4771+98.8015+54.6056+98.8152C49.3709+98.84+44.1436+99.4148+38.8853+98.9643C33.312+98.4867+27.1782+96.3591+21.7007+95.5405C16.1936+94.7176+12.5345+94.8262+8.67581+91.7141" fill="#ffffff" stroke-linecap="butt" opacity="1" stroke-linejoin="round"/>
<path stroke="#ffffff" stroke-width="1" d="M1.8451+36.6805C4.30826+36.3261+6.1854+39.1458+8.88544+40.19C11.843+41.3338+15.1041+41.9622+18.1769+42.7698C21.1134+43.5416+23.7656+45.782+26.9191+46.3913C44.124+49.7156+65.4756+50.3161+82.2885+44.7691C84.9714+43.8839+88.1679+44.2068+90.8953+43.0706C93.5257+41.9748+97.8904+38.6945+99.3427+38.1204L99.6716+38.252C99.3554+42.244+82.0095+45.7581+77.7719+47.0466C63.6327+51.3458+41.2501+49.7563+26.7651+46.7763C21.527+45.6987+13.0821+42.6855+8.14231+40.6464C5.31471+39.4791+4.13265+37.6781+1.45338+37.464" fill="#ffffff" stroke-linecap="butt" opacity="1" stroke-linejoin="round"/>
<path stroke="#ffffff" stroke-width="1" d="M53.1175+1.11387C55.9364+2.54515+58.5663+5.83032+61.1476+7.78394C69.1684+13.8544+77.9892+19.4449+86.1357+25.3105C89.303+27.5909+93.854+30.2835+96.2854+33.3531C97.2052+34.5145+99.486+35.7594+99.7823+36.9347C99.8633+37.2561+100.224+37.9115+100.451+37.6704L99.9339+38.1879C97.9496+36.5882+95.2537+32.8441+92.1598+30.5019C79.3851+20.8311+65.9893+10.5372+52.8375+1.39383" fill="#000000" stroke-linecap="butt" opacity="1" stroke-linejoin="round"/>
<path stroke="#ffffff" stroke-width="1" d="M52.0316+1.33622C40.7397+9.20497+29.4889+16.9199+18.0322+24.6973C14.1606+27.3256+10.5468+30.1269+6.91686+32.9771C5.98884+33.7057+1.35549+37.2125+1.41253+37.2538L1.02905+37.0621C1.6213+34.7455+10.3618+29.4532+13.0943+27.6947C26.1555+19.2894+38.4633+9.39769+51.6955+1.00009" fill="#000000" stroke-linecap="butt" opacity="1" stroke-linejoin="round"/>
<path stroke="#ffffff" stroke-width="1" d="M52.7094+2.24428C54.6499+6.80831+55.3771+11.9741+57.2976+16.7291C59.4672+22.101+61.9191+27.1345+63.6992+32.7825C64.7229+36.0302+66.5159+40.0445+68.1662+42.9704C68.6603+43.8464+69.6654+45.5963+69.8175+46.5186C69.8629+46.7936+70.3928+47.6368+70.3943+47.5904L70.0081+47.9766C67.2501+44.7555+64.134+36.6515+62.7163+31.4454C62.2007+29.5519+62.2396+27.1347+61.2276+25.3945C57.0648+18.2361+55.0934+9.95646+52.2173+2.31998" fill="#000000" stroke-linecap="butt" opacity="1" stroke-linejoin="round"/>
<path stroke="#ffffff" stroke-width="1" d="M51.7949+2.74483C44.4422+13.0218+37.8316+25.3663+32.6812+36.705C31.684+38.9004+28.9527+45.8412+27.1109+46.5099L26.916+46.315C27.0175+46.3749+27.3844+45.3958+27.5772+45.2624C29.0347+44.2539+31.2017+38.8352+32.4854+36.4112C38.3936+25.2545+43.6787+12.8796+51.0753+2.50494" fill="#000000" stroke-linecap="butt" opacity="1" stroke-linejoin="round"/>
<path stroke="#ffffff" stroke-width="1" d="M33.998+34.3738C38.7312+30.4429+47.7337+27.5692+54.0915+29.2986C58.558+30.5136+61.2431+31.5161+63.5821+33.5799C63.784+33.758+64.5789+34.2547+64.2029+34.5774L64.2029+34.7684C63.252+35.0034+57.6828+30.9268+54.0915+30.1072C47.5471+28.6137+39.5168+30.6992+34.4248+34.8006" fill="#000000" stroke-linecap="butt" opacity="1" stroke-linejoin="round"/>
<path stroke="#ffffff" stroke-width="1" d="M64.7625+34.804C63.6729+28.6295+74.0903+26.3545+76.4387+23.1548C78.0374+20.9765+82.0983+23.3728+81.5979+23.1106L81.5979+23.4417C76.0737+19.1556+69.3598+30.4689+64.5002+34.5418" fill="#000000" stroke-linecap="butt" opacity="1" stroke-linejoin="round"/>
<path stroke="#ffffff" stroke-width="1" d="M60.1648+21.9802C62.4507+19.2327+63.7426+17.0931+67.0504+15.4323C67.937+14.9871+69.1018+14.8642+70.1155+14.8574C70.6131+14.8541+71.9133+15.5457+71.5722+15.1834L71.5722+15.602C66.571+14.2256+63.4578+18.3273+60.5289+22.3442" fill="#000000" stroke-linecap="butt" opacity="1" stroke-linejoin="round"/>
<path stroke="#ffffff" stroke-width="1" d="M40.9124+19.6943C47.4787+15.5788+57.6632+17.4784+60.4325+21.9321L60.4325+22.0495C59.9665+22.7991+56.6021+19.408+55.3768+18.6884C51.0935+16.1728+45.2956+17.4641+41.2208+20.0028" fill="#000000" stroke-linecap="butt" opacity="1" stroke-linejoin="round"/>
<path stroke="#ffffff" stroke-width="1" d="M33.0303+13.5353C40.8475+10.268+41.0541+18.9561+41.8378+19.2905L41.8378+19.5497C41.3477+19.7588+40.0341+15.9684+40.4244+15.5631C40.718+15.2583+39.8521+14.9119+39.4745+14.7208C37.5591+13.7514+35.646+13.2902+33.336+13.9939" fill="#000000" stroke-linecap="butt" opacity="1" stroke-linejoin="round"/>
<path stroke="#ffffff" stroke-width="1" d="M21.586+21.803C29.3974+19.6123+36.7245+28.768+34.1257+34.5539L34.1257+34.6205C33.123+35.066+33.4231+31.9414+33.2386+31.4167C32.5914+29.5766+32.3616+27.2231+30.8716+24.7308C28.8293+21.3147+22.0842+21.7971+19.0386+23.5161" fill="#000000" stroke-linecap="butt" opacity="1" stroke-linejoin="round"/>
<path stroke="#ffffff" stroke-width="1" d="M42.2017+65.6481C42.1915+72.822+41.4919+79.9535+42.0617+87.1152C42.2636+89.653+42.1129+92.291+42.0171+94.8272C41.9916+95.5014+41.9633+98.7256+41.7455+98.5119L41.7587+98.5119C41.684+98.5853+41.6262+95.713+41.6601+94.9129C41.7704+92.3053+41.7498+89.7155+41.9567+87.1152C42.5148+80.1006+41.827+72.7411+41.8167+65.6377" fill="#000000" stroke-linecap="butt" opacity="1" stroke-linejoin="round"/>
<path stroke="#ffffff" stroke-width="1" d="M42.0819+65.6451C41.9913+65.8836+41.8981+66.0097+41.8114+65.9497C41.7646+65.9173+41.7204+65.8838+41.6789+65.8492" fill="#000000" stroke-linecap="butt" opacity="1" stroke-linejoin="round"/>
<path stroke="#ffffff" stroke-width="1" d="M42.2377+65.6492C42.1634+65.9175+42.0557+66.0942+41.8945+66.1211C41.7572+66.144+41.642+66.1177+41.5473+66.0521" fill="#000000" stroke-linecap="butt" opacity="1" stroke-linejoin="round"/>
<path stroke="#ffffff" stroke-width="1" d="M63.858+65.0177C65.4025+75.587+64.46+87.8559+64.46+97.9121L64.46+97.9121C64.46+87.8959+64.1772+75.6378+63.4186+64.9162" fill="#000000" stroke-linecap="butt" opacity="1" stroke-linejoin="round"/>
<path stroke="#ffffff" stroke-width="1" d="M7.48037+40.7569C7.49205+41.2814+7.74748+42.421+7.58248+42.8992L7.19844+42.8992C6.97804+42.2604+7.11402+41.4373+7.12917+40.7569" fill="#000000" stroke-linecap="butt" opacity="1" stroke-linejoin="round"/>
<path stroke="#ffffff" stroke-width="1" d="M63.3808+64.8205C63.5545+57.7465+52.4643+53.8656+44.9783+59.0718C42.7843+60.5976+41.9212+63.5218+41.9116+66.1756C41.9097+66.7058+41.3577+67.8395+41.8828+67.7659L41.8748+67.7739C41.5284+67.7634+41.7195+66.5566+41.6881+66.2553C41.4547+64.013+42.2731+61.2178+43.5775+59.9029C43.9525+59.5249+44.1575+58.2208+44.5186+58.6121C44.526+58.6202+46.0618+57.1721+46.4465+57.0806C47.9876+56.7137+49.4883+56.1062+51.1256+55.696C57.8281+54.0166+63.9325+59.636+64.0598+64.8205" fill="#000000" stroke-linecap="butt" opacity="1" stroke-linejoin="round"/>
<path stroke="#ffffff" stroke-width="1" d="M63.9349+64.3422C63.9572+64.9759+64.4596+65.9434+64.0627+66.682L63.8562+66.7852C63.3263+66.794+63.3346+64.6741+63.3463+64.3422" fill="#000000" stroke-linecap="butt" opacity="1" stroke-linejoin="round"/>
<path stroke="#ffffff" stroke-width="1" d="M72.6132+56.1317C72.6173+58.4828+72.5079+61.1614+72.6397+63.5408C72.7059+64.7367+73.3153+68.0309+72.5235+67.1322L72.4541+67.1322C72.3811+67.215+72.3896+66.2636+72.386+66.0162C72.3731+65.1395+72.3136+64.2625+72.3379+63.3899C72.4021+61.0844+72.3602+58.5111+72.3644+56.1317" fill="#000000" stroke-linecap="butt" opacity="1" stroke-linejoin="round"/>
<path stroke="#ffffff" stroke-width="1" d="M73.4454+67.1413C78.4796+67.4737+81.3829+66.1415+84.5029+65.1243L84.5482+65.1544C84.8254+67.3212+75.9304+67.4372+73.4454+67.6013" fill="#000000" stroke-linecap="butt" opacity="1" stroke-linejoin="round"/>
<path stroke="#ffffff" stroke-width="1" d="M84.5188+55.2351C84.5112+56.365+84.7422+65.1711+84.4291+65.5012L84.3304+65.5012C83.9179+65.0663+84.1601+56.3519+84.1526+55.2351" fill="#000000" stroke-linecap="butt" opacity="1" stroke-linejoin="round"/>
<path stroke="#ffffff" stroke-width="1" d="M72.6209+56.2203C75.8041+55.1013+81.8958+53.8714+84.3625+55.0761L84.1326+55.306C81.803+55.8816+76.1604+56.0806+72.7866+56.7174" fill="#000000" stroke-linecap="butt" opacity="1" stroke-linejoin="round"/>
<path stroke="#ffffff" stroke-width="1" d="M18.747+53.3384C18.7239+54.6605+18.3046+64.3062+18.2541+64.2666L18.486+64.2723C17.7426+64.7993+18.2361+61.5669+18.2226+60.6803C18.1829+58.0817+18.0961+55.5882+18.169+53.3241" fill="#000000" stroke-linecap="butt" opacity="1" stroke-linejoin="round"/>
<path stroke="#ffffff" stroke-width="1" d="M31.548+56.2308C32.0169+59.4822+31.2104+62.9152+31.665+66.2547L30.9028+66.2358C31.4807+63.1478+31.1992+59.2197+30.7825+56.2118" fill="#000000" stroke-linecap="butt" opacity="1" stroke-linejoin="round"/>
<path stroke="#ffffff" stroke-width="1" d="M19.6245+53.4383C23.4135+54.4385+31.3215+54.4783+31.3576+56.3971L31.3313+56.4221C31.3671+56.8117+22.6792+55.753+19.2855+54.3771" fill="#000000" stroke-linecap="butt" opacity="1" stroke-linejoin="round"/>
<path stroke="#ffffff" stroke-width="1" d="M19.228+64.3751C23.0831+64.9704+28.0878+63.9463+31.1169+65.5635L31.1061+65.9991C29.9012+66.5673+21.6692+65.6655+18.9593+65.1191" fill="#000000" stroke-linecap="butt" opacity="1" stroke-linejoin="round"/>
</g>
</svg>
